<svg xmlns="http://www.w3.org/2000/svg" width="16" height="16" viewBox="0 0 16 16" shape-rendering="crispEdges"><path fill="#74502c" d="M0 0h16v16H0z"/><rect x="0" y="0" width="2" height="1" fill="#624022"/><rect x="7" y="11" width="3" height="2" fill="#896039"/><rect x="14" y="6" width="4" height="1" fill="#946c41"/><rect x="5" y="1" width="2" height="2" fill="#50361f"/><rect x="12" y="12" width="3" height="1" fill="#624022"/><rect x="3" y="7" width="4" height="2" fill="#896039"/><rect x="10" y="2" width="2" height="1" fill="#946c41"/><rect x="1" y="13" width="3" height="2" fill="#50361f"/><rect x="8" y="8" width="4" height="1" fill="#624022"/><rect x="15" y="3" width="2" height="2" fill="#896039"/><rect x="6" y="14" width="3" height="1" fill="#946c41"/><rect x="13" y="9" width="4" height="2" fill="#50361f"/><rect x="4" y="4" width="2" height="1" fill="#624022"/><rect x="11" y="15" width="3" height="2" fill="#896039"/><rect x="2" y="10" width="4" height="1" fill="#946c41"/><rect x="9" y="5" width="2" height="2" fill="#50361f"/><rect x="0" y="0" width="3" height="1" fill="#624022"/><rect x="7" y="11" width="4" height="2" fill="#896039"/><rect x="14" y="6" width="2" height="1" fill="#946c41"/><rect x="5" y="1" width="3" height="2" fill="#50361f"/><rect x="12" y="12" width="4" height="1" fill="#624022"/><rect x="3" y="7" width="2" height="2" fill="#896039"/><rect x="10" y="2" width="3" height="1" fill="#946c41"/><rect x="1" y="13" width="4" height="2" fill="#50361f"/><rect x="8" y="8" width="2" height="1" fill="#624022"/><rect x="15" y="3" width="3" height="2" fill="#896039"/><rect x="6" y="14" width="4" height="1" fill="#946c41"/><rect x="13" y="9" width="2" height="2" fill="#50361f"/><rect x="4" y="4" width="3" height="1" fill="#624022"/><rect x="11" y="15" width="4" height="2" fill="#896039"/><rect x="2" y="10" width="2" height="1" fill="#946c41"/><rect x="9" y="5" width="3" height="2" fill="#50361f"/><rect x="0" y="0" width="4" height="1" fill="#624022"/><rect x="7" y="11" width="2" height="2" fill="#896039"/><rect x="14" y="6" width="3" height="1" fill="#946c41"/><path d="M0 0h16M0 4h16M0 8h16M0 12h16M7 0v4M12 4v4M4 8v4M10 12v4" stroke="#3d2819" stroke-width="1"/></svg>